<?xml version="1.0" encoding="UTF-8" standalone="no"?>

<svg
   xmlns="http://www.w3.org/2000/svg"
   viewBox="0 0 150 181.25"
   version="1.1">
  <g transform="translate(-133.03313,-490.01878)">
    <g transform="matrix(1.25,0,0,-1.25,208.03313,671.26878)"
       class="shield-secondary-color">
      <path
         d="m 35.472,24.722 c 9.245,8.596 12.453,16.392 17.17,42.58 C 57.359,93.49 60,127.275 60,127.275 20.189,127.075 0,145 0,145 c 0,0 -20.189,-17.925 -60,-17.725 0,0 2.642,-33.785 7.359,-59.973 4.716,-26.188 7.924,-33.984 17.169,-42.58 C -26.226,16.126 0,0 0,0 0,0 26.226,16.126 35.472,24.722 Z"
         style="stroke:none" />
    </g>
    <g transform="matrix(1.25,0,0,-1.25,139.83201,518.32091)"
       class="shield-secondary-color">
      <path
         d="m 0,0 c 0.942,-10.507 3.319,-34.62 6.84,-54.169 4.746,-26.35 7.759,-32.465 15.653,-39.806 7.105,-6.605 25.268,-18.221 32.068048,-22.4919 6.799048,4.2711 24.963048,15.8871 32.067048,22.4911 7.895,7.342 10.908,13.457 15.653004,39.807 3.52,19.541 5.898,43.661 6.84,54.168 C 79.848096,1.0372 61.623096,11.4282 54.561048,16.3591 47.497,11.43 29.27,1.039 0,0"
         style="stroke:none" />
    </g>
    <g transform="matrix(1.25,0,0,-1.25,143.92451,521.88053)"
       class="shield-primary-color">
      <path
         d="m 0,0 c 1.043,-11.139 3.312,-32.986 6.519,-50.789 4.591,-25.495 7.416,-31.327 14.743,-38.141 6.475,-6.02 23.027,-16.712 30.025048,-21.1421 6.998048,4.4309 23.551048,15.1229 30.024048,21.1419 7.328,6.814 10.152,12.646 14.743,38.141 3.208,17.805 5.477004,39.65 6.520004,50.788 C 76.231096,1.5678 58.930096,10.6218 51.286548,15.5909 43.642,10.623 26.34,1.57 0,0"
         style="stroke:none" />
    </g>
    <g transform="matrix(1.25,0,0,-1.25,208.03313,671.26878)"
       style="fill:#000000;opacity:0.1">
      <path
         d="m 0,0 0,145 c 0,0 20.189,-17.925 60,-17.725 0,0 -2.641,-33.785 -7.358,-59.973 C 47.925,41.114 44.717,33.318 35.472,24.722 26.226,16.126 0,0 0,0"
         style="stroke:none" />
    </g>
    <g transform="matrix(-1.25,0,0,-1.25,208.03313,671.26878)"
       style="fill:#ffffff;opacity:0.05">
      <path
         d="m 0,0 0,145 c 0,0 20.189,-17.925 60,-17.725 0,0 -2.641,-33.785 -7.358,-59.973 C 47.925,41.114 44.717,33.318 35.472,24.722 26.226,16.126 0,0 0,0"
         style="stroke:none" />
    </g>
  </g>
</svg>
