<?xml version="1.0" encoding="UTF-8" standalone="no"?>

<svg
   xmlns="http://www.w3.org/2000/svg"
   viewBox="0 0 150.00025 181.25"
   version="1.1">
  <g transform="translate(43.198883,-747.07882)">
    <g transform="matrix(1.25,0,0,-1.25,-22.110133,772.44382)"
       class="shield-secondary-color">
      <path
         d="m -3.762,-80.763 c -7.448,14.021 -11.215,33.714 -13.109,48.954 10.68,0.321 19.249,9.844 19.249,21.554 C 2.378,-6.543 1.517,-3.05 0,0 L 43.1291,20.292 86.2582,0 c -1.517,-3.05 -2.378,-6.543 -2.378,-10.255 0,-11.71 8.569,-21.233 19.249,-21.554 -1.894,-15.24 -5.662,-34.933 -13.109,-48.954 -15.955,-30.038 -46.8911,-43.945 -46.8911,-43.945 0,0 -30.9361,13.907 -46.8911,43.945 z"
         style="stroke:none" />
    </g>
    <g transform="matrix(1.25,0,0,-1.25,-12.887263,785.26358)"
       class="shield-secondary-color">
      <path
         d="m 0,0 c 0,-12.466 -7.841,-22.842 -18.643,-25.749 1.934,-13.457 5.489,-30.309 11.918,-42.412 12.615,-23.751 35.52,-37.077 42.478652,-40.70955 6.948652,3.60945 29.811652,16.871454 42.472652,40.709454 6.429,12.102 9.984,28.954 11.918,42.412 -10.801,2.907 -18.643,13.283 -18.643,25.749 0,2.612 0.362,5.214 1.063,7.701 L 35.751152,25.021952 -1.063,7.701 C -0.362,5.214 0,2.612 0,0"
         style="stroke:none" />
    </g>
    <g transform="matrix(1.25,0,0,-1.25,-9.1372628,785.26358)"
       class="shield-primary-color">
      <path
         d="m 0,0 c 0,-12.596 -7.403,-23.656 -18.302,-27.814 1.858,-12.009 5.255,-27.698 11.226,-38.94 11.481,-21.614 31.915,-34.383 39.830904,-38.71535 7.895904,4.30165 28.298904,17.020654 39.821904,38.715654 5.972,11.243 9.369,26.93 11.226,38.939 -10.898,4.159 -18.301,15.219 -18.301,27.815 0,2.025 0.195,4.042 0.582,6.023 L 32.750904,21.707152 -0.582,6.023 C -0.195,4.042 0,2.025 0,0"
         style="stroke:none" />
    </g>
    <g transform="matrix(1.25,0,0,-1.25,85.712617,772.44382)"
       style="fill:#000000;opacity:0.1">
      <path
         d="m 0,0 c -1.517,-3.05 -2.378,-6.543 -2.378,-10.255 0,-11.71 8.569,-21.233 19.249,-21.554 -1.894,-15.24 -5.662,-34.933 -13.109,-48.954 -15.955,-30.038 -46.891,-43.945 -46.891,-43.945 l 0,145 L 0,0 Z"
         style="stroke:none" />
    </g>
    <g transform="matrix(-1.25,0,0,-1.25,-22.109883,772.44382)"
       style="fill:#ffffff;opacity:0.05">
      <path
         d="m 0,0 c -1.517,-3.05 -2.378,-6.543 -2.378,-10.255 0,-11.71 8.569,-21.233 19.249,-21.554 -1.894,-15.24 -5.662,-34.933 -13.109,-48.954 -15.955,-30.038 -46.891,-43.945 -46.891,-43.945 l 0,145 L 0,0 Z"
         style="stroke:none" />
    </g>
  </g>
</svg>
