<?xml version="1.0" encoding="UTF-8" standalone="no"?>

<svg
   xmlns="http://www.w3.org/2000/svg"
   viewBox="0 0 162.5 181.25"
   version="1.1">
  <g transform="translate(-300.36491,-459.54259)">
    <g transform="matrix(1.25,0,0,-1.25,381.61491,640.79259)"
       class="shield-secondary-color">
      <path
         d="m -28.281,18.136 c -19.248,7.362 -26.549,13.976 -29.655,31.639 -3.105,17.663 3.882,29.336 3.882,45.616 0,16.28 -10.946,31.255 -10.946,31.255 L -46.447,145 0,145 46.447,145 65,126.646 c 0,0 -10.946,-14.975 -10.946,-31.255 0,-16.28 6.987,-27.953 3.882,-45.616 C 54.831,32.112 47.529,25.498 28.281,18.136 4.993,9.228 0,0 0,0 0,0 -4.993,9.228 -28.281,18.136 Z"
         style="stroke:none" />
    </g>
    <g transform="matrix(1.25,0,0,-1.25,381.61528,631.26184)"
       class="shield-secondary-color">
      <path
         d="m 26.495,15.181 c 18.415,7.044 23.867,12.767 26.516,27.835 1.664,9.462 0.129,17.133 -1.497,25.255 -1.209,6.043 -2.46,12.293 -2.46,19.495 0,12.892 6.053,24.789 9.535,30.565 l -14.198,14.045 -44.3914,-2e-4 -44.3914,-1.9e-4 -14.197,-14.045 c 3.48,-5.775 9.534,-17.672 9.534,-30.565002 0,-7.201 -1.251,-13.451 -2.46,-19.495 -1.625,-8.122 -3.16,-15.794 -1.497,-25.255 2.649,-15.067 8.101,-20.79 26.517,-27.834 14.285,-5.464 22.24,-11.175 26.4944,-15.181304 C 4.254,4.006 12.21,9.717 26.495,15.181 Z"
         style="stroke:none" />
    </g>
    <g transform="matrix(1.25,0,0,-1.25,381.61528,626.25633)"
       class="shield-primary-color">
      <path
         d="m 25.423,13.979 c 17.355,6.638 22.19,11.653 24.633,25.552 1.567,8.908 0.085,16.31 -1.486,24.156 -1.237,6.185 -2.516,12.58 -2.516,20.075 0,12.192 5.049,23.434 8.774,30.065 l -11.671,11.544 -43.157048,-1.5e-4 -43.158048,-1.5e-4 -11.67,-11.544 c 3.724,-6.632 8.773,-17.875004 8.773,-30.065004 0,-7.495 -1.279,-13.89 -2.518,-20.086 -1.569,-7.837 -3.049,-15.24 -1.484,-24.144 2.444,-13.9 7.279,-18.915 24.633,-25.553 12.806,-4.897 20.715,-10.048 25.424048,-13.978348 C 4.707,3.929 12.615,9.08 25.423,13.979 Z"
         style="stroke:none" />
    </g>
    <g transform="matrix(1.25,0,0,-1.25,381.61491,640.79259)"
       style="fill:#000000;opacity:0.1">
      <path
         d="M 0,0 0,145 46.447,145 65,126.646 c 0,0 -10.946,-14.975 -10.946,-31.255 0,-16.28 6.987,-27.953 3.882,-45.616 C 54.831,32.112 47.529,25.498 28.281,18.136 4.993,9.228 0,0 0,0"
         style="stroke:none" />
    </g>
    <g transform="matrix(-1.25,0,0,-1.25,381.61491,640.79259)"
       style="fill:#ffffff;opacity:0.05">
      <path
         d="M 0,0 0,145 46.447,145 65,126.646 c 0,0 -10.946,-14.975 -10.946,-31.255 0,-16.28 6.987,-27.953 3.882,-45.616 C 54.831,32.112 47.529,25.498 28.281,18.136 4.993,9.228 0,0 0,0"
         style="stroke:none" />
    </g>
  </g>
</svg>
