<?xml version="1.0" encoding="UTF-8" standalone="no"?>

<svg
   xmlns="http://www.w3.org/2000/svg"
   viewBox="0 0 156.25 181.25"
   version="1.1">
  <g transform="translate(-577.77562,-349.56329)">
    <g transform="matrix(1.25,0,0,-1.25,655.90062,530.81329)"
       class="shield-secondary-color">
      <path
         d="M -38.851,33.318 C -51.52,45.846 -54.336,53.309 -57.611,74.632 -60.885,95.956 -62.5,133.539 -62.5,133.539 -38.288,140.202 0,145 0,145 c 0,0 38.288,-4.798 62.5,-11.461 0,0 -1.615,-37.583 -4.89,-58.907 C 54.335,53.309 51.52,45.846 38.851,33.318 26.182,20.79 0,0 0,0 0,0 -26.182,20.79 -38.851,33.318 Z"
         style="stroke:none" />
    </g>
    <g transform="matrix(1.25,0,0,-1.25,700.07037,484.72104)"
       class="shield-secondary-color">
      <path
         d="m 0,0 c 11.877,11.744 14.24,18.379 17.332,38.518 2.573,16.75 4.128,44.118 4.645,54.343 -21.863,5.522 -52.573,9.61 -57.3127,10.22415 -4.7397,-0.61485 -35.4497,-4.702854 -57.3127,-10.223854 m 0,0 c 0.517,-10.225 2.071,-37.588 4.644,-54.344 3.092,-20.138 5.456,-26.773 17.333,-38.517 9.774,-9.666 28.052,-24.593 35.3357,-30.46515 7.2837,5.87185 25.5587,20.79685 35.3357,30.464854"
         style="stroke:none" />
    </g>
    <g transform="matrix(1.25,0,0,-1.25,697.43362,482.05504)"
       class="shield-primary-color">
      <path
         d="m 0,0 c 11.504,11.375 13.51,17.517 16.477,36.84 2.356,15.34 3.85,39.602 4.485,51.569 -21.095,5.082 -49.38,8.888 -54.1885,9.518052 C -38.035,97.297104 -66.32,93.491104 -87.415,88.409104 m 0,0 c 0.635,-11.964 2.129,-36.224 4.485,-51.569 2.967,-19.323 4.973,-25.465 16.477,-36.84 8.917,-8.818 25.026,-22.094 33.2265,-28.74005 8.1985,6.64395 24.3055,19.918946 33.2265,28.739946"
         style="stroke:none" />
    </g>
    <g transform="matrix(1.25,0,0,-1.25,655.90062,530.81329)"
       style="fill:#000000;opacity:0.1">
      <path
         d="m 0,0 0,145 c 0,0 38.288,-4.798 62.5,-11.461 0,0 -1.615,-37.583 -4.89,-58.907 C 54.335,53.309 51.52,45.846 38.851,33.318 26.182,20.79 0,0 0,0"
         style="stroke:none" />
    </g>
    <g transform="matrix(-1.25,0,0,-1.25,655.90062,530.81329)"
       style="fill:#ffffff;opacity:0.05">
      <path
         d="m 0,0 0,145 c 0,0 38.288,-4.798 62.5,-11.461 0,0 -1.615,-37.583 -4.89,-58.907 C 54.335,53.309 51.52,45.846 38.851,33.318 26.182,20.79 0,0 0,0"
         style="stroke:none" />
    </g>
  </g>
</svg>
