<?xml version="1.0" encoding="UTF-8" standalone="no"?>

<svg
   xmlns="http://www.w3.org/2000/svg"
   viewBox="0 0 162.5 181.25"
   version="1.1">
  <g transform="translate(-377.21791,-499.29414)">
    <g transform="matrix(1.25,0,0,-1.25,377.21791,524.97039)"
       class="shield-secondary-color">
      <path
         d="M 0,0 C 0,0 1.163,-54.392 15.739,-80.514 32.5,-110.552 65,-124.459 65,-124.459 c 0,0 32.5,13.907 49.261,43.945 C 128.837,-54.392 130,0 130,0"
         style="stroke:none" />
    </g>
    <g transform="matrix(1.25,0,0,-1.25,539.71791,524.97039)"
       class="shield-secondary-color">
      <path
         d="M 0,0 C 0,0 -18.321,-1.664 -33.869,2.382 -55.719,8.068 -65,20.541 -65,20.541 -65,20.541 -74.281,8.068 -96.131,2.382 -111.679,-1.664 -130,0 -130,0"
         style="stroke:none" />
    </g>
    <g transform="matrix(1.25,0,0,-1.25,514.58716,622.56801)"
       class="shield-secondary-color">
      <path
         d="m 0,0 c 11.184,20.044 14.154,58.624 14.885,72.797 -1.2,-0.035 -2.558,-0.058 -4.038,-0.058 -6.75,0 -16.717,0.5 -25.87,2.882 -15.299,3.982 -24.94,11.126 -29.872252,15.719148 -4.933252,-4.592852 -14.572252,-11.737852 -29.871252,-15.718852 -9.153,-2.382 -19.12,-2.882 -25.869996,-2.883 -1.482,0 -2.839,0.024 -4.039,0.059 0.73,-14.173 3.701,-52.753 14.885996,-72.797 13.384,-23.988 37.811,-37.36 44.896252,-40.856148 C -37.815,-37.38 -13.432,-24.07 0,0"
         style="stroke:none" />
    </g>
    <g transform="matrix(1.25,0,0,-1.25,511.31204,620.74064)"
       class="shield-primary-color">
      <path
         d="m 0,0 c 10.21,18.299 13.415,53.682 14.325,68.279 -0.281,-10e-4 -0.567,-0.002 -0.858,-0.002 -6.925,0 -17.165,0.517 -26.626,2.979 -13.788,3.588 -23.219,9.617 -29.116204,14.6121 -5.897204,-4.9949 -15.328204,-11.0249 -29.115204,-14.6119 -9.459,-2.462 -19.7,-2.979 -26.626,-2.979 -0.291,0 -0.578,0.001 -0.86,0.002 0.911,-14.598 4.116,-49.98 14.327,-68.279 12.211,-21.884 34.008,-34.697 42.277704,-38.9591 C -34.021,-34.726 -12.255,-21.962 0,0"
         style="stroke:none" />
    </g>
    <g transform="matrix(1.25,0,0,-1.25,539.71791,524.97039)"
       style="fill:#000000;opacity:0.1">
      <path
         d="M 0,0 C 0,0 -1.163,-54.392 -15.739,-80.514 -32.5,-110.552 -65,-124.459 -65,-124.459 l 0,145 c 0,0 9.281,-12.473 31.131,-18.159 C -18.321,-1.664 0,0 0,0"
         style="stroke:none" />
    </g>
    <g transform="matrix(-1.25,0,0,-1.25,377.21791,524.97039)"
       style="fill:#ffffff;opacity:0.05">
      <path
         d="M 0,0 C 0,0 -1.163,-54.392 -15.739,-80.514 -32.5,-110.552 -65,-124.459 -65,-124.459 l 0,145 c 0,0 9.281,-12.473 31.131,-18.159 C -18.321,-1.664 0,0 0,0"
         style="stroke:none" />
    </g>
  </g>
</svg>
