<?xml version="1.0" encoding="UTF-8" standalone="no"?>

<svg
   xmlns="http://www.w3.org/2000/svg"
   viewBox="0 0 162.5 181.25"
   version="1.1">
  <g transform="translate(-242.06263,-756.35418)">
    <g transform="matrix(1.25,0,0,-1.25,323.31263,783.76168)"
       class="shield-secondary-color">
      <path
         d="M 49.261,-75.079 C 63.837,-46.549 65,3.496 65,3.496 l -37.678,18.43 c 0,0 -2.504,-8.71 -10.947,-15.483 C 8.381,0.032 0,0 0,0 0,0 -8.381,0.032 -16.375,6.443 -24.818,13.216 -27.321,21.926 -27.321,21.926 L -65,3.496 c 0,0 1.163,-50.045 15.739,-78.575 C -32.5,-107.886 0,-123.074 0,-123.074 c 0,0 32.5,15.188 49.261,47.995 z"
         style="stroke:none" />
    </g>
    <g transform="matrix(1.25,0,0,-1.25,298.93313,780.58318)"
       class="shield-secondary-color">
      <path
         d="M 0,0 C -5.191,4.164 -8.43,8.984 -10.325,12.59 L -40.37,-2.105 c 0.547,-11.304 3.244,-50.105 15.064,-73.242 13.333,-26.095 37.533,-40.699 44.809948,-44.6441 7.275948,3.94389 31.476948,18.54889 44.808948,44.643892 11.82,23.137 14.518,61.938 15.065,73.242 l -30.045,14.695 c -1.895,-3.605 -5.134,-8.426 -10.327,-12.59 -9.191,-7.372 -18.937,-7.539 -19.511948,-7.542396 C 19.071,-7.541 9.25,-7.419 0,0"
         style="stroke:none" />
    </g>
    <g transform="matrix(1.25,0,0,-1.25,296.587,783.50794)"
       class="shield-primary-color">
      <path
         d="M 0,0 C -4.486,3.598 -7.6,7.654 -9.658,10.998 L -35.394,-1.589 c 0.741,-13.173 3.704,-48.653 14.637,-70.053 12.173,-23.825 33.811,-37.851 42.1374,-42.5779 8.3264,4.7271 29.9654,18.7521 42.1374,42.5771 10.934,21.402 13.897,56.882 14.637,70.054 l -25.735,12.587 c -2.059,-3.345 -5.173,-7.401 -9.66,-10.998 -9.816,-7.874 -20.093,-8.194 -21.3959,-8.2031 C 20.202,-8.197 9.876,-7.921 0,0"
         style="stroke:none" />
    </g>
    <g transform="matrix(1.25,0,0,-1.25,323.31263,783.76168)"
       style="fill:#000;opacity:0.1">
      <path
         d="m 0,0 0,-123.074 c 0,0 32.5,15.188 49.261,47.995 C 63.837,-46.549 65,3.496 65,3.496 l -37.678,18.43 c 0,0 -2.504,-8.71 -10.947,-15.483 C 8.381,0.032 0,0 0,0"
         style="stroke:none" />
    </g>
    <g transform="matrix(-1.25,0,0,-1.25,323.31263,783.76168)"
       style="fill:#ffffff;opacity:0.05">
      <path
         d="m 0,0 0,-123.074 c 0,0 32.5,15.188 49.261,47.995 C 63.837,-46.549 65,3.496 65,3.496 l -37.678,18.43 c 0,0 -2.504,-8.71 -10.947,-15.483 C 8.381,0.032 0,0 0,0"
         style="stroke:none" />
    </g>
  </g>
</svg>
