<?xml version="1.0" encoding="UTF-8" standalone="no"?>

<svg
   xmlns="http://www.w3.org/2000/svg"
   viewBox="0 0 131.24949 181.25"
   version="1.1">
  <g transform="translate(-166.25931,-319.0871)">
    <g transform="matrix(-1.25,0,0,-1.25,231.88406,319.0871)"
       class="shield-secondary-color">
      <path
         d="m -33.924,-122.193 c -20.43,16.386 -18.529,18.945 -18.529,33.35 l 0,66.23 c 0,0 7.982,0.703 11.973,7.725 C -36.302,-7.535 -37.487,0 -37.487,0 L 0,0 37.487,0 c 0,0 -1.185,-7.535 2.993,-14.888 3.991,-7.022 11.973,-7.725 11.973,-7.725 l 0,-66.23 c 0,-14.405 1.901,-16.964 -18.529,-33.35 C 11.333,-140.311 0,-145 0,-145 c 0,0 -11.333,4.689 -33.924,22.807 z"
         style="stroke:none" />
    </g>
    <g transform="matrix(-1.25,0,0,-1.25,272.42994,325.33673)"
       class="shield-secondary-color">
      <path
         d="m 1.642,-113.292 c -16.832,13.5 -16.806,15.657 -16.684,26.027 0.013,1.067 0.026,2.202 0.026,3.421 l 0,62.32 c 3.515,1.221 8.269,3.796 11.32,9.166 C -1.168,-7.91 -0.267,-3.408 0,0 l 32.437,0 32.437,0 c 0.267,-3.408 1.168,-7.91 3.696,-12.358 3.051,-5.37 7.805,-7.945 11.32,-9.166 l 0,-62.32 c 0,-1.219 0.013,-2.354 0.026,-3.421 0.122,-10.37 0.148,-12.527 -16.684,-26.027 -16.423,-13.173 -26.761,-19.075 -30.795,-21.157 -4.034,2.082 -14.372,7.984 -30.795,21.157 z"
         style="stroke:none" />
    </g>
    <g transform="matrix(1.25,0,0,-1.25,194.66444,329.08673)"
       class="shield-primary-color">
      <path
         d="m 0.857,-107.952 c -15.691,12.585 -15.674,14.06 -15.561,23.652 0.013,1.078 0.026,2.225 0.026,3.456 l 0,60.28 c 3.654,1.614 7.973,4.522 10.929,9.724 C -1.898,-7.584 -0.622,-3.88 0,0 l 29.776,0 29.776,0 c 0.622,-3.88 1.898,-7.584 3.749,-10.84 2.956,-5.202 7.275,-8.11 10.929,-9.724 l 0,-60.28 c 0,-1.231 0.013,-2.378 0.026,-3.456 0.113,-9.592 0.13,-11.067 -15.561,-23.652 -14.668,-11.764 -24.415,-17.643 -28.919,-20.1 -4.504,2.457 -14.251,8.336 -28.919,20.1 z"
         style="stroke:none" />
    </g>
    <g transform="matrix(1.25,0,0,-1.25,231.88406,319.0871)"
       style="fill:#000000;opacity:0.1">
      <path
         d="m 0,0 0,-145 c 0,0 11.333,4.689 33.924,22.807 20.43,16.386 18.529,18.945 18.529,33.35 l 0,66.23 c 0,0 -7.982,0.703 -11.973,7.725 C 36.302,-7.535 37.487,0 37.487,0 L 0,0 Z"
         style="stroke:none" />
    </g>
    <g transform="matrix(-1.25,0,0,-1.25,231.88406,319.0871)"
       style="fill:#ffffff;opacity:0.05">
      <path
         d="m 0,0 0,-145 c 0,0 11.333,4.689 33.924,22.807 20.43,16.386 18.529,18.945 18.529,33.35 l 0,66.23 c 0,0 -7.982,0.703 -11.973,7.725 C 36.302,-7.535 37.487,0 37.487,0 L 0,0 Z"
         style="stroke:none" />
    </g>
  </g>
</svg>
