<?xml version="1.0" encoding="UTF-8" standalone="no"?>

<svg
   xmlns="http://www.w3.org/2000/svg"
   viewBox="0 0 162.5 181.25"
   version="1.1">
  <g transform="translate(0.42184265,-751.05397)">
    <g transform="matrix(1.25,0,0,-1.25,-0.42184265,787.44272)"
       class="shield-secondary-color">
      <path
         d="M 15.739,-71.944 C 1.163,-45.822 0,0 0,0 L 65.000001,29.111 130,0 c 0,0 -1.163,-45.822 -15.739,-71.944 -16.760998,-30.038 -49.260999,-43.945 -49.260999,-43.945 0,0 -32.500001,13.907 -49.261001,43.945 z"
         style="stroke:none" />
    </g>
    <g transform="matrix(1.25,0,0,-1.25,24.709537,874.32659)"
       class="shield-secondary-color">
      <path
         d="m 0,0 c 13.385,-23.988 37.811,-37.36 44.897448,-40.8572 7.077448,3.4768 31.460448,16.7858 44.892448,40.8568 11.600004,20.788 14.365004,55.534 14.958004,66.333 L 44.894948,93.1398 -14.958,66.333 C -14.365,55.533 -11.6,20.788 0,0"
         style="stroke:none" />
    </g>
    <g transform="matrix(1.25,0,0,-1.25,27.984037,872.49921)"
       class="shield-primary-color">
      <path
         d="m 0,0 c 12.211,-21.884 34.009,-34.698 42.278848,-38.959 8.251848,4.233 30.018848,16.999 42.271848,38.959 10.658,19.102 13.675,50.853 14.459,62.98 L 42.275348,88.391 -14.459,62.98 C -13.675,50.852 -10.658,19.101 0,0"
         style="stroke:none" />
    </g>
    <g transform="matrix(1.25,0,0,-1.25,162.07816,787.44272)"
       style="fill:#000000;opacity:0.1">
      <path
         d="M 0,0 C 0,0 -1.163,-45.822 -15.739,-71.944 -32.5,-101.982 -65,-115.889 -65,-115.889 l 0,145 L 0,0 Z"
         style="stroke:none" />
    </g>
    <g transform="matrix(-1.25,0,0,-1.25,-0.42184,787.44272)"
       style="fill:#ffffff;opacity:0.05">
      <path
         d="M 0,0 C 0,0 -1.163,-45.822 -15.739,-71.944 -32.5,-101.982 -65,-115.889 -65,-115.889 l 0,145 L 0,0 Z"
         style="stroke:none" />
    </g>
  </g>
</svg>
