<?xml version="1.0" encoding="UTF-8" standalone="no"?>

<svg
   xmlns="http://www.w3.org/2000/svg"
   viewBox="0 0 162.5 181.25"
   version="1.1">
  <g transform="translate(216.40528,-415.81588)">
    <g transform="matrix(1.25,0,0,-1.25,-135.15528,597.06588)"
       class="shield-secondary-color">
      <path
         d="M -49.261,43.945 C -63.837,70.067 -65,115.889 -65,115.889 -39.424,123.306 -38.709,145 -38.709,145 L 0,145 l 38.709,0 c 0,0 0.716,-21.694 26.291,-29.111 0,0 -1.163,-45.822 -15.739,-71.944 C 32.5,13.907 0,0 0,0 0,0 -32.5,13.907 -49.261,43.945 Z"
         style="stroke:none" />
    </g>
    <g transform="matrix(1.25,0,0,-1.25,-209.9464,456.65563)"
       class="shield-secondary-color">
      <path
         d="m 0,0 c 0.633,-11.214 3.457,-45.372 14.938,-65.947 13.385,-23.988 37.811,-37.36 44.897448,-40.8563 7.077448,3.4757 31.460448,16.7857 44.892452,40.8567 11.465,20.547 14.299,54.728 14.937,65.947 -18.241,6.751 -23.749004,20.377 -25.408004,27.672 L 59.832948,27.6722 25.41,27.672 C 23.749,20.378 18.241,6.751 0,0"
         style="stroke:none" />
    </g>
    <g transform="matrix(1.25,0,0,-1.25,-206.0359,459.14575)"
       class="shield-primary-color">
      <path
         d="m 0,0 c 0.809,-12.144 3.868,-43.566 14.429,-62.493 12.213,-21.886 34.009,-34.697 42.279448,-38.95885 8.250448,4.233154 30.016448,16.997154 42.271448,38.959154 10.546004,18.899 13.614004,50.341 14.427004,62.493 -16.154004,6.749 -22.279004,18.713 -24.598004,26.664 L 56.704948,26.664152 24.601,26.664 C 22.28,18.713 16.154,6.748 0,0"
         style="stroke:none" />
    </g>
    <g transform="matrix(1.25,0,0,-1.25,-135.15528,597.06588)"
       style="fill:#000000;opacity:0.1">
      <path
         style="fill:#000000;fill-opacity:1;fill-rule:nonzero;stroke:none"
         d="m 0,0 0,145 38.709,0 c 0,0 0.716,-21.694 26.291,-29.111 0,0 -1.163,-45.822 -15.739,-71.944 C 32.5,13.907 0,0 0,0" />
    </g>
    <g transform="matrix(-1.25,0,0,-1.25,-135.15528,597.06588)"
       style="fill:#ffffff;opacity:0.05">
      <path
         d="m 0,0 0,145 38.709,0 c 0,0 0.716,-21.694 26.291,-29.111 0,0 -1.163,-45.822 -15.739,-71.944 C 32.5,13.907 0,0 0,0"
         style="fill:#ffffff;fill-opacity:1;fill-rule:nonzero;stroke:none" />
    </g>
  </g>
</svg>
