<?xml version="1.0" encoding="UTF-8" standalone="no"?>

<svg
   xmlns="http://www.w3.org/2000/svg"
   viewBox="0 0 143.74999 181.25"
   version="1.1">
  <g transform="translate(-262.41072,-190.30863)">
    <g transform="matrix(1.25,0,0,-1.25,334.28571,190.30863)"
       class="shield-secondary-color">
      <path
         d="M -28.75,-10.747 C -45.459,-10.471 -57.5,0 -57.5,0 l 0,-72.5 c 0,-16.652 0,-31.112 17.922,-49.483 C -21.656,-140.354 0,-145 0,-145 c 0,0 21.656,4.646 39.578,23.017 C 57.5,-103.612 57.5,-89.152 57.5,-72.5 L 57.5,0 C 57.5,0 45.459,-10.471 28.75,-10.747 12.041,-11.023 0,0 0,0 L 0,-145 0,0 c 0,0 -12.041,-11.023 -28.75,-10.747 z"
         style="stroke:none" />
    </g>
    <g transform="matrix(-1.25,0,0,-1.25,370.70046,209.99826)"
       class="shield-secondary-color">
      <path
         style="stroke:none"
         d="M 0,0 C 12.888,0 23.11,5.854 28.632,9.411 34.154,5.854 44.376,0 57.264,0 -0.002,0 -0.467,0.001 -0.7,0.005 -10.433,0.166 -18.686,3.4 -24.368,6.469 l 0,-63.217 c 0,-16.246 0,-29.077 16.501,-45.992 14.404,-14.765 31.61,-20.164 36.499,-21.353 4.889,1.189 22.095,6.588 36.499,21.353 16.501,16.915 16.501,29.746 16.501,45.992 l 0,63.217 C 75.95,3.4 67.697,0.166 57.964,0.005 57.731,0.001 57.266,0 57.264,0 " />
    </g>
    <g transform="matrix(-1.25,0,0,-1.25,370.70046,213.74825)"
       class="shield-primary-color">
      <path
         style="stroke:none"
         d="M 0,0 C -0.002,0 -0.5,0.001 -0.75,0.006 -8.862,0.14 -15.974,2.307 -21.368,4.67 l 0,-58.418 c 0,-16.172 0,-27.856 15.649,-43.897 13.053,-13.381 28.358,-18.747 34.351,-20.333 5.993,1.586 21.298,6.952 34.351,20.333 15.649,16.041 15.649,27.725 15.649,43.897 l 0,58.418 C 73.238,2.307 66.126,0.14 58.014,0.006 57.764,0.001 57.266,0 57.264,0 44.886,0 34.844,5.061 28.632,8.785 22.42,5.061 12.378,0 0,0" />
    </g>
    <g>
      <g transform="matrix(1.25,0,0,-1.25,334.28571,190.30863)"
         style="opacity:0.10;fill:#000000">
        <path
           style="stroke:none"
           d="m 0,0 0,-145 c 0,0 21.656,4.646 39.578,23.017 C 57.5,-103.612 57.5,-89.152 57.5,-72.5 L 57.5,0 C 57.5,0 45.459,-10.471 28.75,-10.747 12.041,-11.023 0,0 0,0" />
      </g>
      <g transform="matrix(-1.25,0,0,-1.25,334.28571,190.30863)"
         style="opacity:0.05;fill:#ffffff">
        <path
           d="m 0,0 0,-145 c 0,0 21.656,4.646 39.578,23.017 C 57.5,-103.612 57.5,-89.152 57.5,-72.5 L 57.5,0 C 57.5,0 45.459,-10.471 28.75,-10.747 12.041,-11.023 0,0 0,0"
           style="stroke:none" />
      </g>
    </g>
  </g>
</svg>
