<?xml version="1.0" encoding="UTF-8" standalone="no"?>

<svg
   xmlns="http://www.w3.org/2000/svg"
   viewBox="0 0 162.5 181.25"
   version="1.1">
  <g transform="translate(-173.15994,-601.32313)">
    <g transform="matrix(1.25,0,0,-1.25,254.40994,782.57313)"
       class="shield-secondary-color">
      <path
         d="M 45.708,38.382 C 59.658,63.437 65,89.026 65,89.026 c 0,0 -10.685,2.399 -17.511,13.327 -6.827,10.928 6.826,23.456 6.826,23.456 C 33.39,143.401 0,145 0,145 c 0,0 -33.39,-1.599 -54.315,-19.191 0,0 13.653,-12.528 6.826,-23.456 C -54.315,91.425 -65,89.026 -65,89.026 c 0,0 5.343,-25.589 19.292,-50.644 C -31.758,13.327 0,0 0,0 0,0 31.758,13.327 45.708,38.382 Z"
         style="stroke:none" />
    </g>
    <g transform="matrix(1.25,0,0,-1.25,199.41406,631.75789)"
        class="shield-secondary-color">
      <path
         d="m 0,0 c 4.315,-7.581 4.574,-14.825 0.748,-20.949 -4.859,-7.779 -11.428,-11.846 -15.845,-13.842 2.104,-8.128 7.618,-26.842 17.754,-45.046 11.006,-19.768 34.451,-32.04 41.341952,-35.3201 6.882952,3.26491 30.297952,15.490908 41.337952,35.319908 10.135,18.204 15.648996,36.919 17.753996,45.046 -4.417996,1.996 -10.986996,6.063 -15.846996,13.843 -5.652,9.051 -1.405,18.905 3.692,25.435 -18.441,12.679 -44.182,14.673 -46.938952,14.852096 C 41.218,19.158 15.444,17.157 -2.993,4.452 -2.002,3.176 -0.95,1.67 0,0"
         style="stroke:none" />
    </g>
    <g transform="matrix(1.25,0,0,-1.25,202.67331,629.90238)"
       class="shield-primary-color">
      <path
         d="m 0,0 c 4.895,-8.599 5.132,-16.906 0.684,-24.023 -4.44,-7.11 -10.187,-11.369 -14.855,-13.856 2.327,-8.478 7.683,-25.532 16.842,-41.983 9.963,-17.894 30.754,-29.501 38.721248,-33.4448 7.953248,3.9242 28.724248,15.4972 38.716248,33.4442 9.155,16.446 14.513,33.503 16.842,41.984 -4.668,2.486 -10.416,6.746 -14.859,13.857 -4.803,7.692 -4.057,17.114 1.964,26.222 -17.137,10.5 -39.255,12.41 -42.666248,12.6473 C 37.973,14.609 15.804,12.69 -1.333,2.166 -0.855,1.444 -0.411,0.721 0,0"
         style="stroke:none" />
    </g>
    <g transform="matrix(1.25,0,0,-1.25,254.40994,782.57313)"
       style="fill:#000000;opacity:0.1">
      <path
         d="m 0,0 0,145 c 0,0 33.39,-1.599 54.315,-19.191 0,0 -13.653,-12.528 -6.826,-23.456 C 54.315,91.425 65,89.026 65,89.026 65,89.026 59.658,63.437 45.708,38.382 31.758,13.327 0,0 0,0"
         style="stroke:none" />
    </g>
    <g transform="matrix(-1.25,0,0,-1.25,254.40994,782.57313)"
       style="fill:#ffffff;opacity:0.05">
      <path
         d="m 0,0 0,145 c 0,0 33.39,-1.599 54.315,-19.191 0,0 -13.653,-12.528 -6.826,-23.456 C 54.315,91.425 65,89.026 65,89.026 65,89.026 59.658,63.437 45.708,38.382 31.758,13.327 0,0 0,0"
         style="stroke:none" />
    </g>
  </g>
</svg>
