<?xml version="1.0" encoding="UTF-8" standalone="no"?>

<svg
   xmlns="http://www.w3.org/2000/svg"
   viewBox="0 0 143.74999 181.25"
   version="1.1">
  <g transform="translate(-287.21403,-603.97323)">
    <g transform="matrix(1.25,0,0,-1.25,359.08903,603.97323)"
       class="shield-secondary-color">
      <path
         d="m -37.492,-121.521 c -17.825,17.134 -20.008,32.363 -20.008,46.324 l 0,50.766 c 0,0 12.247,0.634 27.574,7.3 C -13.993,-10.202 0,0 0,0 c 0,0 13.993,-10.202 29.926,-17.131 15.327,-6.666 27.574,-7.3 27.574,-7.3 l 0,-50.766 c 0,-13.961 -2.183,-29.19 -20.008,-46.324 C 19.667,-138.654 0,-145 0,-145 c 0,0 -19.667,6.346 -37.492,23.479 z"
         style="stroke:none" />
    </g>
    <g transform="matrix(1.25,0,0,-1.25,401.6234,751.36836)"
       class="shield-secondary-color">
      <path
         d="m 0,0 c 17.045,16.384 18.473,30.641 18.473,42.719 l 0,46.307 C 13.259,89.81 4.247,91.702 -6.096,96.2 c -12.06,5.245 -22.902,12.203 -27.931,15.6191 -5.03,-3.4159 -15.871,-10.3739 -27.932,-15.6189 m 0,0 c -10.343,-4.498 -19.355,-6.391 -24.568,-7.174 l 0,-46.307 c 0,-12.079 1.427,-26.335 18.472,-42.719 13.922,-13.382 29.207,-19.922 34.0305,-21.7691 4.8095,1.8299 20.0335,8.3209 34.0245,21.7689"
         style="stroke:none" />
    </g>
    <g transform="matrix(1.25,0,0,-1.25,399.02453,748.66461)"
       class="shield-primary-color">
      <path
         d="m 0,0 c 16.195,15.567 17.552,29.096 17.552,40.556 l 0,43.763 c -5.758,1.039 -13.774,3.057 -22.765,6.967 -11.003,4.785 -20.946,10.919 -26.7353,14.7581 -5.7893,-3.8389 -15.7323,-9.9729 -26.7353,-14.7579 m 0,0 c -8.991,-3.91 -17.007,-5.928 -22.765,-6.967 l 0,-43.763 c 0,-11.461 1.357,-24.99 17.552,-40.556 12.65,-12.16 26.581,-18.54 31.9523,-20.7086 5.3453,2.1454 19.2313,8.4884 31.9443,20.7084"
         style="stroke:none" />
    </g>
    <g transform="matrix(1.25,0,0,-1.25,359.08903,603.97323)"
       style="fill:#000000;opacity:0.1">
      <path
         d="m 0,0 0,-145 c 0,0 19.667,6.346 37.492,23.479 17.825,17.134 20.008,32.363 20.008,46.324 l 0,50.766 c 0,0 -12.247,0.634 -27.574,7.3 C 13.993,-10.202 0,0 0,0"
         style="stroke:none" />
    </g>
    <g transform="matrix(-1.25,0,0,-1.25,359.08903,603.97323)"
       style="fill:#ffffff;opacity:0.05">
      <path
         d="m 0,0 0,-145 c 0,0 19.667,6.346 37.492,23.479 17.825,17.134 20.008,32.363 20.008,46.324 l 0,50.766 c 0,0 -12.247,0.634 -27.574,7.3 C 13.993,-10.202 0,0 0,0"
         style="stroke:none" />
    </g>
  </g>
</svg>
