<?xml version="1.0" encoding="UTF-8" standalone="no"?>

<svg
   xmlns="http://www.w3.org/2000/svg"
   viewBox="0 0 137.50001 181.25"
   version="1.1">
  <g transform="translate(-253.23758,-447.61712)">
    <g transform="matrix(1.25,0,0,-1.25,321.98758,628.86712)"
       class="shield-secondary-color">
      <path
         d="M -43.06,20.403 C -54.162,26.742 -55,40.014 -55,48.531 l 0,96.469 55,0 55,0 0,-96.469 C 55,40.014 54.162,26.742 43.06,20.403 31.958,14.064 0,0 0,0 0,0 -31.958,14.064 -43.06,20.403 Z"
         style="stroke:none" />
    </g>
    <g transform="matrix(1.25,0,0,-1.25,372.7137,597.93587)"
       class="shield-secondary-color">
      <path
         d="m 0,0 c 8.349,4.767 9.419,15.216 9.419,23.786 l 0,91.469 -50,5e-5 -50,5e-5 0,-91.469004 c 0,-8.57 1.07,-19.02 9.42,-23.786 9.161,-5.231 33.42,-16.096 40.58,-19.276548 C -33.422,-16.097 -9.164,-5.232 0,0"
         style="stroke:none" />
    </g>
    <g transform="matrix(1.25,0,0,-1.25,370.85458,594.679)"
       class="shield-primary-color">
      <path
         d="m 0,0 c 7.008,4.001 7.906,13.421 7.906,21.181 l 0,88.468 -46.999852,3e-4 -46.999852,3e-4 0,-88.469 c 0,-7.76 0.898,-17.18 7.907,-21.181 8.574,-4.894 30.732,-14.873 39.092852,-18.5983 C -30.735,-14.875 -8.584,-4.901 0,0"
         style="stroke:none" />
    </g>
    <g transform="matrix(1.25,0,0,-1.25,321.98758,628.86712)"
       style="fill:#000000;opacity:0.1">
      <path
         d="m 0,0 0,145 55,0 0,-96.469 C 55,40.014 54.162,26.742 43.06,20.403 31.958,14.064 0,0 0,0"
         style="stroke:none" />
    </g>
    <g transform="matrix(-1.25,0,0,-1.25,321.98758,628.86712)"
       style="fill:#ffffff;opacity:0.05">
      <path
         d="m 0,0 0,145 55,0 0,-96.469 C 55,40.014 54.162,26.742 43.06,20.403 31.958,14.064 0,0 0,0"
         style="stroke:none" />
    </g>
  </g>
</svg>
