<?xml version="1.0" encoding="UTF-8" standalone="no"?>

<svg
   xmlns="http://www.w3.org/2000/svg"
   viewBox="0 0 150.00012 181.25"
   version="1.1">
  <g transform="translate(-162.18421,-452.91733)">
    <g transform="matrix(1.25,0,0,-1.25,300.83558,480.37233)"
       class="shield-secondary-color">
      <path
         d="m 0,0 c -0.79,-10.536 9.079,-15.893 9.079,-15.893 0,0 -5.724,-12.321 -5.724,-34.643 0,-22.321 -6.71,-37.5 -19.342,-48.928 -12.631,-11.429 -34.934048,-23.572 -34.934048,-23.572 0,0 -22.303048,12.143 -34.934048,23.572 -12.632,11.428 -19.342004,26.607 -19.342004,48.928 0,22.322 -5.724,34.643 -5.724,34.643 0,0 9.868,5.357 9.079,15.893 0,0 10.336,1.09 23.811,5.97 16.057,5.816 27.110048,15.994 27.110048,15.994 0,0 11.053048,-10.178 27.110048,-15.994"
         style="stroke:none" />
    </g>
    <g transform="matrix(1.25,0,0,-1.25,179.54596,485.78558)"
       class="shield-secondary-color">
      <path
         d="m 0,0 c -0.988,-6.382 -4.879,-10.821 -7.868,-13.371 1.834,-5.522 4.703,-16.733 4.703,-32.834 0,-19.928 5.622,-34.297 17.696,-45.221 9.665,-8.745 25.576,-18.129 31.579948,-21.54705 6.002948,3.41795 21.913948,12.80195 31.579948,21.546946 12.073,10.924 17.696,25.293 17.696,45.221 0,16.101 2.869,27.312 4.703004,32.834 -2.990004,2.55 -6.880004,6.989 -7.869004,13.371 -4.432,0.784 -11.921,2.419 -20.703,5.6 -11.655,4.221 -20.759,10.556 -25.406948,14.192552 C 41.463,16.156 32.358,9.821 20.703,5.6 11.921,2.419 4.433,0.784 0,0"
         style="stroke:none" />
    </g>
    <g transform="matrix(1.25,0,0,-1.25,182.71183,489.00946)"
       class="shield-primary-color">
      <path
         d="m 0,0 c -1.309,-5.163 -4.228,-9.044 -6.963,-11.714 1.813,-6.028 4.265,-16.947 4.265,-31.912 0,-19.02 5.309,-32.682 16.709,-42.997 8.705,-7.875 22.64,-16.312 29.5671,-20.31225 6.9281,4.00175 20.8651,12.438754 29.5671,20.312754 11.399,10.314 16.709,23.977 16.709,42.996 0,14.965 2.452,25.884 4.266,31.912 -2.736,2.67 -5.654,6.552 -6.964,11.714 -4.775,0.937 -11.502,2.573 -19.192,5.358 -10.709,3.879 -19.349,9.509 -24.3861,13.243748 C 38.541,14.867 29.901,9.237 19.192,5.358 11.502,2.573 4.775,0.937 0,0"
         style="stroke:none" />
    </g>
    <g transform="matrix(1.25,0,0,-1.25,300.83558,480.37233)"
       style="fill:#000000;opacity:0.1">
      <path
         d="m 0,0 c -0.79,-10.536 9.079,-15.893 9.079,-15.893 0,0 -5.724,-12.321 -5.724,-34.643 0,-22.321 -6.71,-37.5 -19.342,-48.928 -12.631,-11.429 -34.934,-23.572 -34.934,-23.572 l 0,145 c 0,0 11.053,-10.178 27.11,-15.994 C -10.336,1.09 0,0 0,0"
         style="stroke:none" />
    </g>
    <g transform="matrix(-1.25,0,0,-1.25,173.53308,480.37233)"
       style="fill:#ffffff;opacity:0.05">
      <path
         d="m 0,0 c -0.79,-10.536 9.079,-15.893 9.079,-15.893 0,0 -5.724,-12.321 -5.724,-34.643 0,-22.321 -6.71,-37.5 -19.342,-48.928 -12.631,-11.429 -34.934,-23.572 -34.934,-23.572 l 0,145 c 0,0 11.053,-10.178 27.11,-15.994 C -10.336,1.09 0,0 0,0"
         style="stroke:none" />
    </g>
  </g>
</svg>
