<?xml version="1.0" encoding="UTF-8" standalone="no"?>

<svg
   xmlns="http://www.w3.org/2000/svg"
   viewBox="0 0 143.74987 181.25"
   version="1.1">
  <g transform="translate(-568.12506,-352.2134)">
    <g transform="matrix(1.25,0,0,-1.25,639.99962,352.2134)"
       class="shield-secondary-color">
      <path
         d="m 0,-145 c 0,0 29.808,14.277 46.185,54.016 C 62.563,-51.245 56.34,0 56.34,0 L 0,0 M -46.185,-90.984 C -62.563,-51.245 -56.339,0 -56.339,0 L 0,0 0,-145 c 0,0 -29.807,14.277 -46.185,54.016 z "
         style="stroke:none" />
    </g>
    <g transform="matrix(1.25,0,0,-1.25,691.95187,463.5619)"
       class="shield-secondary-color">
      <path
         d="m 0,0 c 12.955,31.434 11.239,71.018 10.221,84.079 l -51.782852,5.2e-5 -51.782852,5.2e-5 c -1.018,-13.061 -2.734,-52.645 10.221,-84.079 12.878,-31.249 34.651,-46.118 41.567352,-50.213552 C -34.654,-46.165 -12.946,-31.414 0,0"
         style="stroke:none" />
    </g>
    <g transform="matrix(1.25,0,0,-1.25,688.48513,462.13315)"
        class="shield-primary-color">
      <path
         d="m 0,0 c 11.955,29.008 11.099,65.718 10.198,79.936 l -48.986208,5.2e-5 -48.987208,5.2e-5 c -0.9,-14.218 -1.757,-50.928 10.198,-79.936 11.715,-28.425 31.083,-42.949 38.796708,-47.839052 C -31.099,-43.011 -11.778,-28.579 0,0"
         style="stroke:none" />
    </g>
    <g transform="matrix(-1.25,0,0,-1.25,639.99962,352.2134)"
       style="fill:#ffffff;opacity:0.05">
      <path
         d="m 0,0 0,-145 c 0,0 29.808,14.277 46.185,54.016 C 62.563,-51.245 56.34,0 56.34,0 L 0,0 Z"
         style="stroke:none" />
    </g>
    <g
       transform="matrix(1.25,0,0,-1.25,639.99962,352.2134)"
       style="fill:#000000;opacity:0.1">
      <path
         d="m 0,0 0,-145 c 0,0 29.808,14.277 46.185,54.016 C 62.563,-51.245 56.34,0 56.34,0 L 0,0 Z"
         style="stroke:none" />
    </g>
  </g>
</svg>
